<svg width="36" height="35" viewBox="0 0 36 35" fill="none" xmlns="http://www.w3.org/2000/svg">
<line x1="18" y1="2" x2="18" y2="15" stroke="white" stroke-width="2" stroke-linecap="round"/>
<line x1="18" y1="1.41421" x2="12.4142" y2="7" stroke="white" stroke-width="2" stroke-linecap="round"/>
<line x1="1" y1="-1" x2="8.8995" y2="-1" transform="matrix(0.707107 0.707107 0.707107 -0.707107 18 0)" stroke="white" stroke-width="2" stroke-linecap="round"/>
<line x1="1" y1="-1" x2="14" y2="-1" transform="matrix(0 -1 -1 0 17 34)" stroke="white" stroke-width="2" stroke-linecap="round"/>
<line x1="1" y1="-1" x2="8.8995" y2="-1" transform="matrix(-0.707107 -0.707107 -0.707107 0.707107 18 35)" stroke="white" stroke-width="2" stroke-linecap="round"/>
<line x1="18" y1="33.5858" x2="23.5858" y2="28" stroke="white" stroke-width="2" stroke-linecap="round"/>
<line x1="33.5" y1="17.5" x2="20.5" y2="17.5" stroke="white" stroke-width="2" stroke-linecap="round"/>
<line x1="34.0858" y1="17.5" x2="28.5" y2="11.9142" stroke="white" stroke-width="2" stroke-linecap="round"/>
<line x1="1" y1="-1" x2="8.8995" y2="-1" transform="matrix(-0.707107 0.707107 0.707107 0.707107 35.5 17.5)" stroke="white" stroke-width="2" stroke-linecap="round"/>
<line x1="1" y1="-1" x2="14" y2="-1" transform="matrix(1 4.37114e-08 4.37114e-08 -1 1.5 16.5)" stroke="white" stroke-width="2" stroke-linecap="round"/>
<line x1="1" y1="-1" x2="8.8995" y2="-1" transform="matrix(0.707107 -0.707107 -0.707107 -0.707107 0.5 17.5)" stroke="white" stroke-width="2" stroke-linecap="round"/>
<line x1="1.91421" y1="17.5" x2="7.5" y2="23.0858" stroke="white" stroke-width="2" stroke-linecap="round"/>
</svg>
